/* XPM */
static char *_ae5bbe7209a49418bc66125fce626f38heOBpSjAzzeG6Ca[] = {
/* columns rows colors chars-per-pixel */
"53 60 6 1 ",
"  c None",
". c #00062D",
"X c #0072FF",
"o c #00B6FF",
"O c #FFE9B2",
", c #FFFFFF",
/* pixels */
"                         .......                     ",
"                         .......                     ",
"                    .......ooooo...                  ",
"                    .......ooooo...                  ",
"                    .......ooooo...                  ",
"                 ...XXXXXXX...ooooo..                ",
"                 ...XXXXXXX...ooooo..                ",
"               ..XXXXXXXXXXXXX..........             ",
"               ..XXXXXXXXXXXXX..........             ",
"               ..XXXXXXXXXXXXX..........             ",
"               ..XXXXXXXXXXXXX..oooooXXX..           ",
"               ..XXXXXXXXXXXXX..oooooXXX..           ",
"            ...ooXXXXXXXXXXXXXXX.....XXX..           ",
"            ...ooXXXXXXXXXXXXXXX.....XXX..           ",
"            ...ooXXXXXXXXXXXXXXX.....XXX..           ",
"            ...ooXXXXXOOO,,,,,,,XXXXX,,,..           ",
"            ...ooXXXXXOOO,,,,,,,XXXXX,,,..           ",
"            ...ooXXXOO,,,,,.....OOO..,,,..           ",
"            ...ooXXXOO,,,,,.....OOO..,,,..           ",
"            ...ooXXXOO,,,,,.....OOO..,,,..           ",
"               ..XXXOO,,,,,.....OOO..,,,..           ",
"               ..XXXOO,,,,,.....OOO..,,,..           ",
"            .....XXXOOOOO,,,,,,,OOO,,OOO..           ",
"            .....XXXOOOOO,,,,,,,OOO,,OOO..           ",
"            .....XXXOOOOO,,,,,,,OOO,,OOO..           ",
"       .....ooooo...OOOOO..........OO........        ",
"       .....ooooo...OOOOO..........OO........        ",
"     ..XXXoooooooooo..OOOOOOOOOOOOO..oooooXXX..      ",
"     ..XXXoooooooooo..OOOOOOOOOOOOO..oooooXXX..      ",
"     ..XXXoooooooooo..OOOOOOOOOOOOO..oooooXXX..      ",
"     ..XXXXXoooooooooo.............oooooXXXXX..      ",
"     ..XXXXXoooooooooo.............oooooXXXXX..      ",
"  ...XXXXXXXooo..oooooooooooooooooo..oooXXXXXXX...   ",
"  ...XXXXXXXooo..oooooooooooooooooo..oooXXXXXXX...   ",
"  ...XXXXXXXooo..oooooooooooooooooo..oooXXXXXXX...   ",
"  ...XXXXX.......oooooooooooooooooo.......XXXXX...   ",
"  ...XXXXX.......oooooooooooooooooo.......XXXXX...   ",
"  ...XXXXXXX.....oooooooooooooooooo.....XXXXXXX...   ",
"  ...XXXXXXX.....oooooooooooooooooo.....XXXXXXX...   ",
"  ...XXXXXXX.....oooooooooooooooooo.....XXXXXXX...   ",
"  ...XXXXXXX.....XXXXXXXXXXXXXXXXXX.....XXXXXXX...   ",
"  ...XXXXXXX.....XXXXXXXXXXXXXXXXXX.....XXXXXXX...   ",
"     .......   ..XXXXXXXXXXXXXXXXXX..   .......      ",
"     .......   ..XXXXXXXXXXXXXXXXXX..   .......      ",
"     .......   ..XXXXXXXXXXXXXXXXXX..   .......      ",
"            ...oooooXXXXXXXXXXooooooo...             ",
"            ...oooooXXXXXXXXXXooooooo...             ",
"          ..XXXXXoooooooo..ooooooooooXXX..           ",
"          ..XXXXXoooooooo..ooooooooooXXX..           ",
"          ..XXXXXoooooooo..ooooooooooXXX..           ",
"       .....XXXXXXXXoo...  ...ooXXXXXXXX.....        ",
"       .....XXXXXXXXoo...  ...ooXXXXXXXX.....        ",
"  .....XXXXXXXXXXXXX..        ..XXXXXXXXXXXXX.....   ",
"  .....XXXXXXXXXXXXX..        ..XXXXXXXXXXXXX.....   ",
"  .....XXXXXXXXXXXXX..        ..XXXXXXXXXXXXX.....   ",
"..XXXXXXXXXXXXXXXXXX..        ..XXXXXXXXXXXXXXXXXX...",
"..XXXXXXXXXXXXXXXXXX..        ..XXXXXXXXXXXXXXXXXX...",
"......................        .......................",
"......................        .......................",
"......................        ......................."
};
