/* XPM */
static char *result[] = {
/* columns rows colors chars-per-pixel */
"53 60 5 1 ",
"  c #000129",
". c #0073FF",
"X c #00B7FF",
"o c #FFEAB4",
"O c None",
/* pixels */
"OOOOOOOO       OOOOOOOOOOOOOOOOOOOOOOOOOOOOOOOOOOOOOO",
"OOOOOOOOOOOOOOOOOOOOO       OOOOOOOOOOOOOOOOOOOOOOOOO",
"OOOOOOOOOOOOOOOOOO   XXXXX       OOOOOOOOOOOOOOOOOOOO",
"OOOOOOOOOOOOOOOOOO   XXXXX       OOOOOOOOOOOOOOOOOOOO",
"OOOOOOOOOOOOOOOOOO   XXXXX       OOOOOOOOOOOOOOOOOOOO",
"OOOOOOOOOOOOOOOO  XXXXX   .......   OOOOOOOOOOOOOOOOO",
"OOOOOOOOOOOOOOOO  XXXXX   .......   OOOOOOOOOOOOOOOOO",
"OOOOOOOOOOOOO          .............  OOOOOOOOOOOOOOO",
"OOOOOOOOOOOOO          .............  OOOOOOOOOOOOOOO",
"OOOOOOOOOOOOO          .............  OOOOOOOOOOOOOOO",
"OOOOOOOOOOO  ...XXXXX  .............  OOOOOOOOOOOOOOO",
"OOOOOOOOOOO  ...XXXXX  .............  OOOOOOOOOOOOOOO",
"OOOOOOOOOOO  ...     ...............XX   OOOOOOOOOOOO",
"OOOOOOOOOOO  ...     ...............XX   OOOOOOOOOOOO",
"OOOOOOOOOOO  ...     ...............XX   OOOOOOOOOOOO",
"OOOOOOOOOOO  OOO.....OOOOOOOooo.....XX   OOOOOOOOOOOO",
"OOOOOOOOOOO  OOO.....OOOOOOOooo.....XX   OOOOOOOOOOOO",
"OOOOOOOOOOO  OOO  ooo     OOOOOoo...XX   OOOOOOOOOOOO",
"OOOOOOOOOOO  OOO  ooo     OOOOOoo...XX   OOOOOOOOOOOO",
"OOOOOOOOOOO  OOO  ooo     OOOOOoo...XX   OOOOOOOOOOOO",
"OOOOOOOOOOO  OOO  ooo     OOOOOoo...  OOOOOOOOOOOOOOO",
"OOOOOOOOOOO  OOO  ooo     OOOOOoo...  OOOOOOOOOOOOOOO",
"OOOOOOOOOOO  oooOOoooOOOOOOOooooo...     OOOOOOOOOOOO",
"OOOOOOOOOOO  oooOOoooOOOOOOOooooo...     OOOOOOOOOOOO",
"OOOOOOOOOOO  oooOOoooOOOOOOOooooo...     OOOOOOOOOOOO",
"OOOOOOOO        oo          ooooo   XXXXX     OOOOOOO",
"OOOOOOOO        oo          ooooo   XXXXX     OOOOOOO",
"OOOOOO  ...XXXXX  ooooooooooooo  XXXXXXXXXX...  OOOOO",
"OOOOOO  ...XXXXX  ooooooooooooo  XXXXXXXXXX...  OOOOO",
"OOOOOO  ...XXXXX  ooooooooooooo  XXXXXXXXXX...  OOOOO",
"OOOOOO  .....XXXXX             XXXXXXXXXX.....  OOOOO",
"OOOOOO  .....XXXXX             XXXXXXXXXX.....  OOOOO",
"OOO   .......XXX  XXXXXXXXXXXXXXXXXX  XXX.......   OO",
"OOO   .......XXX  XXXXXXXXXXXXXXXXXX  XXX.......   OO",
"OOO   .......XXX  XXXXXXXXXXXXXXXXXX  XXX.......   OO",
"OOO   .....       XXXXXXXXXXXXXXXXXX       .....   OO",
"OOO   .....       XXXXXXXXXXXXXXXXXX       .....   OO",
"OOO   .......     XXXXXXXXXXXXXXXXXX     .......   OO",
"OOO   .......     XXXXXXXXXXXXXXXXXX     .......   OO",
"OOO   .......     XXXXXXXXXXXXXXXXXX     .......   OO",
"OOO   .......     ..................     .......   OO",
"OOO   .......     ..................     .......   OO",
"OOOOOO       OOO  ..................  OOO       OOOOO",
"OOOOOO       OOO  ..................  OOO       OOOOO",
"OOOOOO       OOO  ..................  OOO       OOOOO",
"OOOOOOOOOOOOO   XXXXXXX..........XXXXX   OOOOOOOOOOOO",
"OOOOOOOOOOOOO   XXXXXXX..........XXXXX   OOOOOOOOOOOO",
"OOOOOOOOOOO  ...XXXXXXXXXX  XXXXXXXX.....  OOOOOOOOOO",
"OOOOOOOOOOO  ...XXXXXXXXXX  XXXXXXXX.....  OOOOOOOOOO",
"OOOOOOOOOOO  ...XXXXXXXXXX  XXXXXXXX.....  OOOOOOOOOO",
"OOOOOOOO     ........XX   OO   XX........     OOOOOOO",
"OOOOOOOO     ........XX   OO   XX........     OOOOOOO",
"OOO     .............  OOOOOOOO  .............     OO",
"OOO     .............  OOOOOOOO  .............     OO",
"OOO     .............  OOOOOOOO  .............     OO",
"   ..................  OOOOOOOO  ..................  ",
"   ..................  OOOOOOOO  ..................  ",
"                       OOOOOOOO                      ",
"                       OOOOOOOO                      ",
"                       OOOOOOOO                      "
};
